<?xml version="1.0" encoding="UTF-8"?>
<svg id="Layer_1" xmlns="http://www.w3.org/2000/svg" version="1.1" viewBox="0 0 84 26">
  <!-- Generator: Adobe Illustrator 29.1.0, SVG Export Plug-In . SVG Version: 2.1.0 Build 142)  -->
  <defs>
    <style>
      .st0 {
        fill: #fff;
      }
    </style>
  </defs>
  <path class="st0" d="M44,14.9c-.3,0-.4.4-.4.4-1,1.8-2.1,3-2.7,3s-.2-.1-.2-.2c0-1.1,1.2-5,1.2-5.9s-1.2-1.6-2.1-1.6-3,1.1-3,1.1c0,0-.9-1.1-1.8-1.1s-2.8,1-2.8,1c0,0-.9-1-1.4-1s-.7.1-.8.4c-.2.7-.7,2.7-1.2,4.5-.9,1.7-1.9,2.8-2.5,2.8s-.3-.2-.3-.3c0-1.6,1.4-4.8,1.4-5.5s-1.2-.7-1.9-.7c0,0-1-1.1-2.6-1.1s-3.3,2.5-4,4.9c-.9,1.7-1.8,2.8-2.5,2.8s-.2,0-.2-.3c0-1.1,1.1-4.6,1.1-5.3s-2.5-1.2-2.5-1.5c0-.5.3-.9.3-1.3s-1.2-1.2-1.8-1.2-1.5,1.6-1.5,2.2,1,1.3,1,1.3c0,0-.7,1.7-1.4,3-.8,1.4-1.6,2.1-2.7,2.9.8-2.9,1.5-5.4,1.5-5.8s-1.1-.8-1.9-.8c0,0-1.1-1.1-2.7-1.1S1.2,14.9,1.2,17.6s1.7,2.4,2.8,2.4,1.7-.8,1.7-.8c0,0-.1.4-.4,1.3-1.3.8-2.1,1.3-2.9,1.9-.6.5-.9,1-.9,1.7s1.4,2,2.6,2,2-.3,2.3-.9c.4-.7,1.1-2.8,1.7-5.1,1.6-.9,3-1.9,4.1-3.8,0,0,0,0,0,0,0,0,0-.1,0-.1,1-1.8,1.5-3.2,1.5-3.2,0,0,.5.1.5.2,0,1-1,3.7-1,5.2s1.8,1.7,2.9,1.7,1.7-.8,2.5-1.8c.4.9,1.9,1.8,2.6,1.8s2.2-1.2,2.2-1.2c.3.6,1.8,1.2,2.7,1.2s1.4-.5,2-1.2c0,0,0,0,0,0,0,.5,1.4,1.1,1.9,1.1s.7-.2.7-.5c.1-.6,1.1-4.6,1.6-5.9.3-.8,1.1-1,1.5-1s.4.2.4.3c0,.4-1.3,5.4-1.3,5.9s1.4,1.2,1.9,1.2.7-.2.7-.5c.1-.6,1-4.7,1.4-5.9.2-.5.9-1,1.5-1s.4.2.4.4c0,.8-1.1,4.3-1.1,5.2s2,1.7,2.9,1.7c1.4,0,2.6-1.8,3.7-3.8,0,0,.3-.5.3-.7s-.4-.6-.7-.6ZM4,23.8c-.2.2-.5.4-.7.4s-.3-.2-.3-.3c0-.3.3-.8,1.6-1.7-.3.9-.5,1.4-.6,1.5ZM6,16.6c-.6,1.1-1.1,1.5-1.5,1.5s-.4-.2-.4-.4c0-1.8,1.3-5.1,2.2-5.1s.7.2.7.3c0,.6-.6,2.9-1,3.7ZM23.4,16.6c-.6,1.2-1.3,1.5-1.6,1.5s-.4-.2-.4-.4c0-1.8,1.6-5.1,2.3-5.1s.7.2.7.5c0,.6-.7,2.7-1.1,3.5Z"/>
  <path class="st0" d="M46,17c-.9,0-1.5,1.3-1.5,2.1s.9,1.2,1.4,1.2c1,0,1.5-1.4,1.5-2.1s-.9-1.2-1.4-1.2Z"/>
  <path class="st0" d="M82.3,14.9c-.3,0-.4.4-.4.4-1.3,2.6-2.9,2.9-4,2.9s-1.3-.4-1.3-.9.1-.8.1-.8c0,0,.8.2,1.6.2,1.3,0,2.6-3.3,2.6-4.3s-2-1.9-3-1.9c-1.7,0-3.5,2.7-4.1,5-.9,1.6-1.9,2.7-2.5,2.7s-.2-.1-.2-.2c0-1.1,1.3-5.2,1.4-5.7,0-.1,0-.3,0-.5,0-.4-1.5-1.3-2.1-1.3s-.4.1-.5.4c-.3.8-.9,3.4-1.4,5-.2.6-1.4,2-2.2,2s-.2,0-.2-.2c0-.9,1.2-5,1.4-5.5,0-.1,0-.3,0-.5,0-.4-1.6-1.3-2.1-1.3s-.4.1-.5.4c-.3.8-.9,3-1.3,4.7-.9,1.6-1.7,2.6-2.4,2.6s-.3-.1-.3-.2c0-.9,2.3-8.8,2.5-9.4,0-.2,0-.3,0-.5,0-.3-1.6-1.3-2.1-1.3s-.5.1-.6.4c-.4,1.4-1.7,5.6-2.4,8.4-.3.5-1.1,1.6-2.2,1.6s-.1,0-.3,0c.7-1.5,1.1-3.3,1.1-4.4s-1.5-2.2-2.5-2.2-1.7.5-1.7.5c.2-.7.8-2.6.8-2.9s-1.6-1.3-2-1.3-.6.1-.6.4c-1,3.3-2.4,8.2-2.4,9.8s2.2,2.9,4,2.9,1.9-.6,2.5-1.4c.3,0,.4,0,.6,0,.9,0,1.6-.3,2.2-.7,0,.1,0,.3,0,.3,0,.9,2.1,1.8,3.1,1.8s1.6-.7,2.3-1.6c.4.8,1.6,1.6,2.6,1.6s2.6-1.3,2.6-1.3c.1.6,1.6,1.3,2.5,1.3s1.9-.9,2.7-2.1c.7,1.2,2.7,2.1,4.2,2.1s3.4-1.2,4.7-3.8c0,0,.2-.5.2-.7s-.4-.6-.7-.6ZM78.6,12.5c.2,0,.3.1.3.2,0,.7-.8,2.4-2.2,2.6.2-.8,1.2-2.8,1.9-2.8ZM53.4,16.1c0,0-.1,0-.2,0-.4,0-1.3,1-1.3,1.4s.2.4.5.5c0,0-.2.3-.4.3s-.5-.3-.5-.7c0-1,.4-2.7.9-3.8.3-.6,1.1-1.3,1.4-1.3s.4.2.4.6c0,.8-.3,1.9-.8,3.1Z"/>
</svg>